%TF.GenerationSoftware,KiCad,Pcbnew,4.0.7*%
%TF.CreationDate,2017-12-02T19:07:17+08:00*%
%TF.ProjectId,CodingNinja,436F64696E674E696E6A612E6B696361,rev?*%
%TF.FileFunction,Copper,L2,Bot,Signal*%
%FSLAX46Y46*%
G04 Gerber Fmt 4.6, Leading zero omitted, Abs format (unit mm)*
G04 Created by KiCad (PCBNEW 4.0.7) date 12/02/17 19:07:17*
%MOMM*%
%LPD*%
G01*
G04 APERTURE LIST*
%ADD10C,0.100000*%
%ADD11C,0.002822*%
%ADD12C,0.074671*%
G04 APERTURE END LIST*
D10*
D11*
G36*
X4206825Y4066486D02*
X4133988Y4174392D01*
X4105969Y4278969D01*
X4107008Y4360489D01*
X4125580Y4432602D01*
X4162606Y4537613D01*
X4213257Y4651100D01*
X4272703Y4748642D01*
X4369139Y4870295D01*
X4428011Y4933946D01*
X4475856Y4974614D01*
X4539212Y5027313D01*
X4880186Y5347252D01*
X5047998Y5214643D01*
X5147513Y5119424D01*
X5228810Y5027513D01*
X5296030Y4935458D01*
X5353312Y4839810D01*
X5404797Y4737116D01*
X5454626Y4623928D01*
X5498493Y4507076D01*
X5528666Y4397303D01*
X5544028Y4296903D01*
X5536007Y4167229D01*
X5479862Y4072622D01*
X5478063Y4071623D01*
X5475964Y4070623D01*
X5383891Y4029301D01*
X5271332Y4014631D01*
X5148108Y4039140D01*
X5064897Y4081984D01*
X4986898Y4148712D01*
X4916088Y4245116D01*
X4854448Y4376990D01*
X4772342Y4225267D01*
X4697624Y4119561D01*
X4630213Y4050723D01*
X4570028Y4009605D01*
X4516987Y3987058D01*
X4422244Y3972677D01*
X4313574Y3994076D01*
X4206828Y4066516D01*
X4206825Y4066486D01*
X4206825Y4066486D01*
G37*
X4206825Y4066486D02*
X4133988Y4174392D01*
X4105969Y4278969D01*
X4107008Y4360489D01*
X4125580Y4432602D01*
X4162606Y4537613D01*
X4213257Y4651100D01*
X4272703Y4748642D01*
X4369139Y4870295D01*
X4428011Y4933946D01*
X4475856Y4974614D01*
X4539212Y5027313D01*
X4880186Y5347252D01*
X5047998Y5214643D01*
X5147513Y5119424D01*
X5228810Y5027513D01*
X5296030Y4935458D01*
X5353312Y4839810D01*
X5404797Y4737116D01*
X5454626Y4623928D01*
X5498493Y4507076D01*
X5528666Y4397303D01*
X5544028Y4296903D01*
X5536007Y4167229D01*
X5479862Y4072622D01*
X5478063Y4071623D01*
X5475964Y4070623D01*
X5383891Y4029301D01*
X5271332Y4014631D01*
X5148108Y4039140D01*
X5064897Y4081984D01*
X4986898Y4148712D01*
X4916088Y4245116D01*
X4854448Y4376990D01*
X4772342Y4225267D01*
X4697624Y4119561D01*
X4630213Y4050723D01*
X4570028Y4009605D01*
X4516987Y3987058D01*
X4422244Y3972677D01*
X4313574Y3994076D01*
X4206828Y4066516D01*
X4206825Y4066486D01*
D12*
G36*
X5756953Y6940572D02*
X5451364Y6940572D01*
X5364420Y6263973D01*
X5080352Y6940572D01*
X4958976Y6940572D01*
X4687820Y6263973D01*
X4587963Y6940572D01*
X4284095Y6940572D01*
X4483805Y5765559D01*
X4785090Y5765559D01*
X5023535Y6392235D01*
X5275754Y5765559D01*
X5579621Y5765559D01*
X5756953Y6940572D01*
X5756953Y6940572D01*
G37*
X5756953Y6940572D02*
X5451364Y6940572D01*
X5364420Y6263973D01*
X5080352Y6940572D01*
X4958976Y6940572D01*
X4687820Y6263973D01*
X4587963Y6940572D01*
X4284095Y6940572D01*
X4483805Y5765559D01*
X4785090Y5765559D01*
X5023535Y6392235D01*
X5275754Y5765559D01*
X5579621Y5765559D01*
X5756953Y6940572D01*
G36*
X6620349Y6940572D02*
X5951497Y6940572D01*
X5951497Y5765559D01*
X6620349Y5765559D01*
X6620349Y6021223D01*
X6257086Y6021223D01*
X6257086Y6220066D01*
X6600550Y6220066D01*
X6600550Y6475730D01*
X6257086Y6475730D01*
X6257086Y6684908D01*
X6620349Y6684908D01*
X6620349Y6940572D01*
X6620349Y6940572D01*
G37*
X6620349Y6940572D02*
X5951497Y6940572D01*
X5951497Y5765559D01*
X6620349Y5765559D01*
X6620349Y6021223D01*
X6257086Y6021223D01*
X6257086Y6220066D01*
X6600550Y6220066D01*
X6600550Y6475730D01*
X6257086Y6475730D01*
X6257086Y6684908D01*
X6620349Y6684908D01*
X6620349Y6940572D01*
G36*
X3615278Y4458413D02*
X3309689Y4458413D01*
X3309689Y3283400D01*
X3615278Y3283400D01*
X3615278Y4458413D01*
X3615278Y4458413D01*
G37*
X3615278Y4458413D02*
X3309689Y4458413D01*
X3309689Y3283400D01*
X3615278Y3283400D01*
X3615278Y4458413D01*
D11*
G36*
X6626655Y3117029D02*
X6639808Y3147713D01*
X6698241Y3347054D01*
X6747905Y3526655D01*
X6789736Y3688642D01*
X6824667Y3835142D01*
X6853634Y3968279D01*
X6877572Y4090181D01*
X6897416Y4202973D01*
X6914101Y4308782D01*
X6928561Y4409733D01*
X6941733Y4507953D01*
X6954551Y4605567D01*
X6967949Y4704702D01*
X6982864Y4807483D01*
X7000229Y4916038D01*
X7020981Y5032491D01*
X7046053Y5158970D01*
X7082381Y5328002D01*
X7118150Y5483340D01*
X7153716Y5626148D01*
X7189436Y5757593D01*
X7225664Y5878840D01*
X7262758Y5991054D01*
X7301072Y6095402D01*
X7340963Y6193048D01*
X7382787Y6285159D01*
X7426899Y6372899D01*
X7473656Y6457435D01*
X7523413Y6539933D01*
X7587059Y6635665D01*
X7655232Y6726818D01*
X7728741Y6814038D01*
X7808396Y6897971D01*
X7895004Y6979263D01*
X7989376Y7058559D01*
X8092319Y7136505D01*
X8204642Y7213747D01*
X8327154Y7290930D01*
X8460664Y7368700D01*
X8464462Y7370699D01*
X8468560Y7371699D01*
X8587627Y7394585D01*
X8705291Y7419503D01*
X8822278Y7445403D01*
X8939313Y7471232D01*
X9057121Y7495939D01*
X9176428Y7518473D01*
X9297959Y7537782D01*
X9422439Y7552815D01*
X9550594Y7562520D01*
X9683148Y7565846D01*
X9820828Y7561742D01*
X9964358Y7549156D01*
X10114465Y7527036D01*
X10117463Y7527036D01*
X10120162Y7526486D01*
X10238396Y7540238D01*
X10361012Y7542418D01*
X10459698Y7504398D01*
X10551163Y7458656D01*
X10640173Y7462354D01*
X10747474Y7465119D01*
X10785475Y7432436D01*
X10830200Y7391958D01*
X10937138Y7379520D01*
X11064390Y7380019D01*
X11185077Y7384739D01*
X11272321Y7384962D01*
X11312646Y7350457D01*
X11347106Y7336171D01*
X11389822Y7335608D01*
X11454918Y7342273D01*
X11556515Y7349671D01*
X11708734Y7351307D01*
X11925699Y7340685D01*
X11978766Y7323410D01*
X12025240Y7319015D01*
X12071386Y7324351D01*
X12123464Y7336263D01*
X12187738Y7351602D01*
X12270470Y7367215D01*
X12377922Y7379950D01*
X12516358Y7386655D01*
X12692040Y7384179D01*
X12911230Y7369370D01*
X12993004Y7345495D01*
X13078773Y7318697D01*
X13195642Y7262534D01*
X13292933Y7193131D01*
X13373069Y7111111D01*
X13438474Y7017097D01*
X13491568Y6911709D01*
X13534776Y6795571D01*
X13570520Y6669304D01*
X13589114Y6540621D01*
X13601403Y6408256D01*
X13607704Y6273438D01*
X13608332Y6137396D01*
X13603601Y6001359D01*
X13593827Y5866556D01*
X13579325Y5734216D01*
X13560410Y5605568D01*
X13537397Y5481841D01*
X13510602Y5364265D01*
X13480338Y5254069D01*
X13441309Y5145835D01*
X13430615Y5039974D01*
X13422589Y4952976D01*
X13391566Y4901327D01*
X13389002Y4816868D01*
X13391141Y4714364D01*
X13392493Y4600418D01*
X13387568Y4481631D01*
X13423032Y4389706D01*
X13506275Y4271343D01*
X13566742Y4182798D01*
X13626427Y4099395D01*
X13724766Y4063077D01*
X13855078Y4039131D01*
X13943042Y4029132D01*
X14017687Y4053932D01*
X14118148Y4086302D01*
X14112164Y4052995D01*
X14116149Y4001847D01*
X14205506Y3980569D01*
X14328608Y3965022D01*
X14481302Y3967066D01*
X14576492Y3982807D01*
X14674552Y3987755D01*
X14653934Y3963368D01*
X14633654Y3937181D01*
X14752365Y3884540D01*
X14868355Y3833277D01*
X15015628Y3748096D01*
X15091464Y3686253D01*
X15117889Y3637246D01*
X15116931Y3590576D01*
X15146142Y3516805D01*
X15132025Y3415387D01*
X15090039Y3299937D01*
X15035644Y3184070D01*
X14984301Y3081398D01*
X14953639Y3046197D01*
X14939512Y3028716D01*
X14906079Y2986634D01*
X14817499Y2877627D01*
X14752531Y2855364D01*
X14687814Y2781678D01*
X14561404Y2775315D01*
X14478507Y2741033D01*
X14410331Y2689028D01*
X14363048Y2658806D01*
X14329864Y2630759D01*
X14218483Y2615225D01*
X14186205Y2589093D01*
X14220057Y2559458D01*
X14307066Y2533411D01*
X14250612Y2519043D01*
X14183004Y2526414D01*
X14182448Y2526134D01*
X14119552Y2517047D01*
X14042796Y2513329D01*
X13952318Y2516676D01*
X13848257Y2528784D01*
X13730755Y2551350D01*
X13599950Y2586069D01*
X13455982Y2634638D01*
X13298990Y2698752D01*
X13408731Y2609225D01*
X13544637Y2521108D01*
X13664595Y2451074D01*
X13726489Y2415793D01*
X13619058Y2444073D01*
X13508265Y2484658D01*
X13396166Y2536586D01*
X13284815Y2598895D01*
X13176268Y2670623D01*
X13072578Y2750807D01*
X12975801Y2838485D01*
X12887991Y2932696D01*
X12811204Y3032477D01*
X12747493Y3136866D01*
X12698914Y3244901D01*
X12668292Y3225304D01*
X12635020Y3237194D01*
X12599793Y3277270D01*
X12563307Y3342233D01*
X12526258Y3428784D01*
X12489342Y3533622D01*
X12453254Y3653448D01*
X12418691Y3784963D01*
X12386347Y3924866D01*
X12356919Y4069857D01*
X12331102Y4216638D01*
X12309593Y4361908D01*
X12293086Y4502368D01*
X12282277Y4634717D01*
X12277863Y4755657D01*
X12280539Y4861888D01*
X12316500Y4953139D01*
X12319497Y5062966D01*
X12321841Y5170429D01*
X12330652Y5266482D01*
X12363175Y5298265D01*
X12362780Y5406721D01*
X12363314Y5519217D01*
X12360815Y5600474D01*
X12396154Y5714972D01*
X12379665Y5800347D01*
X12330519Y5716848D01*
X12288044Y5618874D01*
X12314545Y5603070D01*
X12335588Y5599484D01*
X12281500Y5488693D01*
X12227415Y5378463D01*
X12173331Y5268634D01*
X12119245Y5159041D01*
X12065155Y5049522D01*
X12011056Y4939913D01*
X11956948Y4830053D01*
X11902825Y4719776D01*
X11848687Y4608922D01*
X11794529Y4497326D01*
X11740349Y4384825D01*
X11686144Y4271257D01*
X11631911Y4156459D01*
X11577647Y4040267D01*
X11523349Y3922519D01*
X11469015Y3803052D01*
X11414642Y3681702D01*
X11360226Y3558306D01*
X11305765Y3432702D01*
X11251256Y3304727D01*
X11196695Y3174217D01*
X11142081Y3041010D01*
X11136629Y2962719D01*
X11108056Y2839811D01*
X11068038Y2697434D01*
X11028252Y2560736D01*
X11050370Y2557738D01*
X11131873Y2520275D01*
X11234809Y2455004D01*
X11348820Y2370756D01*
X11463549Y2276363D01*
X11568637Y2180656D01*
X11653728Y2092466D01*
X11708462Y2020627D01*
X11722483Y1973969D01*
X11679280Y1950136D01*
X11579127Y1915059D01*
X11438455Y1871899D01*
X11273694Y1823818D01*
X11101275Y1773977D01*
X10937628Y1725536D01*
X10799183Y1681657D01*
X10702371Y1645500D01*
X10663622Y1620228D01*
X10621602Y1553663D01*
X10547451Y1450300D01*
X10497214Y1358160D01*
X10526936Y1325265D01*
X10615589Y1307547D01*
X10716548Y1290736D01*
X10827388Y1274740D01*
X10945684Y1259461D01*
X11069012Y1244805D01*
X11194945Y1230678D01*
X11321060Y1216983D01*
X11486899Y1202160D01*
X11652834Y1192283D01*
X11814288Y1186082D01*
X11966684Y1182283D01*
X12105447Y1179615D01*
X12226000Y1176807D01*
X12323767Y1172585D01*
X12394173Y1165679D01*
X12432640Y1154816D01*
X12434594Y1138725D01*
X12396403Y1128024D01*
X12325584Y1120938D01*
X12227236Y1117211D01*
X12106459Y1116587D01*
X11968352Y1118810D01*
X11818015Y1123624D01*
X11660548Y1130773D01*
X11501049Y1140002D01*
X11344619Y1151054D01*
X11196357Y1163673D01*
X11061363Y1177604D01*
X10955679Y1189512D01*
X10874456Y1198774D01*
X10799131Y1208425D01*
X10711140Y1221499D01*
X10591922Y1241031D01*
X10422911Y1270055D01*
X10325294Y1176619D01*
X10219372Y1107587D01*
X10103751Y1067743D01*
X10111398Y1052275D01*
X10154776Y1023708D01*
X10230758Y983872D01*
X10336216Y934593D01*
X10468024Y877701D01*
X10623054Y815021D01*
X10798179Y748383D01*
X10908371Y708319D01*
X11023713Y667903D01*
X11143521Y627809D01*
X11267114Y588712D01*
X11393807Y551286D01*
X11522920Y516205D01*
X11653770Y484143D01*
X11785673Y455776D01*
X11917947Y431778D01*
X12049911Y412822D01*
X12170350Y399389D01*
X12298485Y387817D01*
X12430649Y378570D01*
X12563175Y372116D01*
X12692397Y368920D01*
X12814647Y369447D01*
X12926259Y374164D01*
X13023566Y383537D01*
X13102901Y398031D01*
X13160597Y418112D01*
X13192988Y444246D01*
X13196406Y476899D01*
X13167185Y516537D01*
X13189414Y533528D01*
X13239476Y528331D01*
X13271241Y504658D01*
X13279658Y432258D01*
X13241860Y347964D01*
X13134979Y288608D01*
X13056047Y277963D01*
X12949454Y274563D01*
X12821455Y277295D01*
X12678302Y285049D01*
X12526250Y296712D01*
X12371553Y311174D01*
X12220464Y327323D01*
X12079238Y344047D01*
X11954128Y360235D01*
X11851389Y374775D01*
X11777274Y386556D01*
X11649312Y411352D01*
X11524626Y440302D01*
X11403378Y472717D01*
X11285732Y507906D01*
X11171850Y545177D01*
X11061895Y583841D01*
X10956029Y623206D01*
X10854416Y662582D01*
X10757218Y701278D01*
X10554217Y785545D01*
X10380049Y862259D01*
X10238125Y927867D01*
X10131857Y978817D01*
X10064657Y1011554D01*
X10039936Y1022527D01*
X9892144Y955014D01*
X9780455Y911601D01*
X9675403Y884934D01*
X9547520Y867659D01*
X9490146Y859281D01*
X9371899Y857659D01*
X9219825Y859774D01*
X9060971Y862603D01*
X8922384Y863127D01*
X8831110Y858323D01*
X8814197Y845171D01*
X8814128Y844482D01*
X8863290Y824367D01*
X8973697Y788304D01*
X9022414Y766723D01*
X8895862Y751966D01*
X8770883Y752985D01*
X8647678Y767555D01*
X8526443Y793449D01*
X8407378Y828440D01*
X8290680Y870304D01*
X8176549Y916813D01*
X8054796Y979374D01*
X7936616Y1045117D01*
X7823225Y1114172D01*
X7715838Y1186667D01*
X7615670Y1262732D01*
X7523937Y1342496D01*
X7429298Y1420947D01*
X7322075Y1493625D01*
X7321535Y1494185D01*
X7320993Y1494735D01*
X7248135Y1574036D01*
X7172513Y1657947D01*
X7095395Y1745778D01*
X7018047Y1836839D01*
X6941736Y1930439D01*
X6867727Y2025889D01*
X6797290Y2122498D01*
X6731689Y2219578D01*
X6672589Y2220234D01*
X6590432Y2228192D01*
X6485663Y2247938D01*
X6358723Y2283958D01*
X6210055Y2340740D01*
X6040101Y2422770D01*
X5920101Y2475498D01*
X5799793Y2534345D01*
X5680900Y2597473D01*
X5565146Y2663047D01*
X5454254Y2729228D01*
X5349946Y2794181D01*
X5253946Y2856069D01*
X5167977Y2913054D01*
X5093762Y2963301D01*
X4966846Y3060888D01*
X4910335Y3120119D01*
X4896328Y3141786D01*
X4905972Y3138796D01*
X4944990Y3113914D01*
X5011206Y3069921D01*
X5102444Y3009600D01*
X5216529Y2935731D01*
X5351283Y2851096D01*
X5504532Y2758476D01*
X5674100Y2660653D01*
X5800275Y2596416D01*
X5934197Y2533447D01*
X6070850Y2473815D01*
X6205214Y2419592D01*
X6332274Y2372849D01*
X6447010Y2335657D01*
X6544405Y2310088D01*
X6619442Y2298214D01*
X6667103Y2302104D01*
X6607305Y2419771D01*
X6530974Y2577637D01*
X6489183Y2705532D01*
X6470051Y2810659D01*
X6461701Y2900219D01*
X6452251Y2981412D01*
X6417504Y2990162D01*
X6340728Y3023181D01*
X6230740Y3075924D01*
X6096354Y3143849D01*
X5946386Y3222413D01*
X5789652Y3307073D01*
X5634968Y3393286D01*
X5491148Y3476510D01*
X5367008Y3552202D01*
X5271365Y3615818D01*
X5213033Y3662817D01*
X5200828Y3688654D01*
X5237980Y3677452D01*
X5324809Y3632899D01*
X5449971Y3564120D01*
X5602123Y3480239D01*
X5769922Y3390383D01*
X5867658Y3341577D01*
X5965191Y3295411D01*
X6058537Y3250921D01*
X6143711Y3207141D01*
X6306488Y3121753D01*
X6400185Y3084403D01*
X6439969Y3090306D01*
X6441007Y3134680D01*
X6553088Y3121087D01*
X6573092Y3081733D01*
X6627488Y3100098D01*
X6626655Y3117029D01*
X6626655Y3117029D01*
G37*
X6626655Y3117029D02*
X6639808Y3147713D01*
X6698241Y3347054D01*
X6747905Y3526655D01*
X6789736Y3688642D01*
X6824667Y3835142D01*
X6853634Y3968279D01*
X6877572Y4090181D01*
X6897416Y4202973D01*
X6914101Y4308782D01*
X6928561Y4409733D01*
X6941733Y4507953D01*
X6954551Y4605567D01*
X6967949Y4704702D01*
X6982864Y4807483D01*
X7000229Y4916038D01*
X7020981Y5032491D01*
X7046053Y5158970D01*
X7082381Y5328002D01*
X7118150Y5483340D01*
X7153716Y5626148D01*
X7189436Y5757593D01*
X7225664Y5878840D01*
X7262758Y5991054D01*
X7301072Y6095402D01*
X7340963Y6193048D01*
X7382787Y6285159D01*
X7426899Y6372899D01*
X7473656Y6457435D01*
X7523413Y6539933D01*
X7587059Y6635665D01*
X7655232Y6726818D01*
X7728741Y6814038D01*
X7808396Y6897971D01*
X7895004Y6979263D01*
X7989376Y7058559D01*
X8092319Y7136505D01*
X8204642Y7213747D01*
X8327154Y7290930D01*
X8460664Y7368700D01*
X8464462Y7370699D01*
X8468560Y7371699D01*
X8587627Y7394585D01*
X8705291Y7419503D01*
X8822278Y7445403D01*
X8939313Y7471232D01*
X9057121Y7495939D01*
X9176428Y7518473D01*
X9297959Y7537782D01*
X9422439Y7552815D01*
X9550594Y7562520D01*
X9683148Y7565846D01*
X9820828Y7561742D01*
X9964358Y7549156D01*
X10114465Y7527036D01*
X10117463Y7527036D01*
X10120162Y7526486D01*
X10238396Y7540238D01*
X10361012Y7542418D01*
X10459698Y7504398D01*
X10551163Y7458656D01*
X10640173Y7462354D01*
X10747474Y7465119D01*
X10785475Y7432436D01*
X10830200Y7391958D01*
X10937138Y7379520D01*
X11064390Y7380019D01*
X11185077Y7384739D01*
X11272321Y7384962D01*
X11312646Y7350457D01*
X11347106Y7336171D01*
X11389822Y7335608D01*
X11454918Y7342273D01*
X11556515Y7349671D01*
X11708734Y7351307D01*
X11925699Y7340685D01*
X11978766Y7323410D01*
X12025240Y7319015D01*
X12071386Y7324351D01*
X12123464Y7336263D01*
X12187738Y7351602D01*
X12270470Y7367215D01*
X12377922Y7379950D01*
X12516358Y7386655D01*
X12692040Y7384179D01*
X12911230Y7369370D01*
X12993004Y7345495D01*
X13078773Y7318697D01*
X13195642Y7262534D01*
X13292933Y7193131D01*
X13373069Y7111111D01*
X13438474Y7017097D01*
X13491568Y6911709D01*
X13534776Y6795571D01*
X13570520Y6669304D01*
X13589114Y6540621D01*
X13601403Y6408256D01*
X13607704Y6273438D01*
X13608332Y6137396D01*
X13603601Y6001359D01*
X13593827Y5866556D01*
X13579325Y5734216D01*
X13560410Y5605568D01*
X13537397Y5481841D01*
X13510602Y5364265D01*
X13480338Y5254069D01*
X13441309Y5145835D01*
X13430615Y5039974D01*
X13422589Y4952976D01*
X13391566Y4901327D01*
X13389002Y4816868D01*
X13391141Y4714364D01*
X13392493Y4600418D01*
X13387568Y4481631D01*
X13423032Y4389706D01*
X13506275Y4271343D01*
X13566742Y4182798D01*
X13626427Y4099395D01*
X13724766Y4063077D01*
X13855078Y4039131D01*
X13943042Y4029132D01*
X14017687Y4053932D01*
X14118148Y4086302D01*
X14112164Y4052995D01*
X14116149Y4001847D01*
X14205506Y3980569D01*
X14328608Y3965022D01*
X14481302Y3967066D01*
X14576492Y3982807D01*
X14674552Y3987755D01*
X14653934Y3963368D01*
X14633654Y3937181D01*
X14752365Y3884540D01*
X14868355Y3833277D01*
X15015628Y3748096D01*
X15091464Y3686253D01*
X15117889Y3637246D01*
X15116931Y3590576D01*
X15146142Y3516805D01*
X15132025Y3415387D01*
X15090039Y3299937D01*
X15035644Y3184070D01*
X14984301Y3081398D01*
X14953639Y3046197D01*
X14939512Y3028716D01*
X14906079Y2986634D01*
X14817499Y2877627D01*
X14752531Y2855364D01*
X14687814Y2781678D01*
X14561404Y2775315D01*
X14478507Y2741033D01*
X14410331Y2689028D01*
X14363048Y2658806D01*
X14329864Y2630759D01*
X14218483Y2615225D01*
X14186205Y2589093D01*
X14220057Y2559458D01*
X14307066Y2533411D01*
X14250612Y2519043D01*
X14183004Y2526414D01*
X14182448Y2526134D01*
X14119552Y2517047D01*
X14042796Y2513329D01*
X13952318Y2516676D01*
X13848257Y2528784D01*
X13730755Y2551350D01*
X13599950Y2586069D01*
X13455982Y2634638D01*
X13298990Y2698752D01*
X13408731Y2609225D01*
X13544637Y2521108D01*
X13664595Y2451074D01*
X13726489Y2415793D01*
X13619058Y2444073D01*
X13508265Y2484658D01*
X13396166Y2536586D01*
X13284815Y2598895D01*
X13176268Y2670623D01*
X13072578Y2750807D01*
X12975801Y2838485D01*
X12887991Y2932696D01*
X12811204Y3032477D01*
X12747493Y3136866D01*
X12698914Y3244901D01*
X12668292Y3225304D01*
X12635020Y3237194D01*
X12599793Y3277270D01*
X12563307Y3342233D01*
X12526258Y3428784D01*
X12489342Y3533622D01*
X12453254Y3653448D01*
X12418691Y3784963D01*
X12386347Y3924866D01*
X12356919Y4069857D01*
X12331102Y4216638D01*
X12309593Y4361908D01*
X12293086Y4502368D01*
X12282277Y4634717D01*
X12277863Y4755657D01*
X12280539Y4861888D01*
X12316500Y4953139D01*
X12319497Y5062966D01*
X12321841Y5170429D01*
X12330652Y5266482D01*
X12363175Y5298265D01*
X12362780Y5406721D01*
X12363314Y5519217D01*
X12360815Y5600474D01*
X12396154Y5714972D01*
X12379665Y5800347D01*
X12330519Y5716848D01*
X12288044Y5618874D01*
X12314545Y5603070D01*
X12335588Y5599484D01*
X12281500Y5488693D01*
X12227415Y5378463D01*
X12173331Y5268634D01*
X12119245Y5159041D01*
X12065155Y5049522D01*
X12011056Y4939913D01*
X11956948Y4830053D01*
X11902825Y4719776D01*
X11848687Y4608922D01*
X11794529Y4497326D01*
X11740349Y4384825D01*
X11686144Y4271257D01*
X11631911Y4156459D01*
X11577647Y4040267D01*
X11523349Y3922519D01*
X11469015Y3803052D01*
X11414642Y3681702D01*
X11360226Y3558306D01*
X11305765Y3432702D01*
X11251256Y3304727D01*
X11196695Y3174217D01*
X11142081Y3041010D01*
X11136629Y2962719D01*
X11108056Y2839811D01*
X11068038Y2697434D01*
X11028252Y2560736D01*
X11050370Y2557738D01*
X11131873Y2520275D01*
X11234809Y2455004D01*
X11348820Y2370756D01*
X11463549Y2276363D01*
X11568637Y2180656D01*
X11653728Y2092466D01*
X11708462Y2020627D01*
X11722483Y1973969D01*
X11679280Y1950136D01*
X11579127Y1915059D01*
X11438455Y1871899D01*
X11273694Y1823818D01*
X11101275Y1773977D01*
X10937628Y1725536D01*
X10799183Y1681657D01*
X10702371Y1645500D01*
X10663622Y1620228D01*
X10621602Y1553663D01*
X10547451Y1450300D01*
X10497214Y1358160D01*
X10526936Y1325265D01*
X10615589Y1307547D01*
X10716548Y1290736D01*
X10827388Y1274740D01*
X10945684Y1259461D01*
X11069012Y1244805D01*
X11194945Y1230678D01*
X11321060Y1216983D01*
X11486899Y1202160D01*
X11652834Y1192283D01*
X11814288Y1186082D01*
X11966684Y1182283D01*
X12105447Y1179615D01*
X12226000Y1176807D01*
X12323767Y1172585D01*
X12394173Y1165679D01*
X12432640Y1154816D01*
X12434594Y1138725D01*
X12396403Y1128024D01*
X12325584Y1120938D01*
X12227236Y1117211D01*
X12106459Y1116587D01*
X11968352Y1118810D01*
X11818015Y1123624D01*
X11660548Y1130773D01*
X11501049Y1140002D01*
X11344619Y1151054D01*
X11196357Y1163673D01*
X11061363Y1177604D01*
X10955679Y1189512D01*
X10874456Y1198774D01*
X10799131Y1208425D01*
X10711140Y1221499D01*
X10591922Y1241031D01*
X10422911Y1270055D01*
X10325294Y1176619D01*
X10219372Y1107587D01*
X10103751Y1067743D01*
X10111398Y1052275D01*
X10154776Y1023708D01*
X10230758Y983872D01*
X10336216Y934593D01*
X10468024Y877701D01*
X10623054Y815021D01*
X10798179Y748383D01*
X10908371Y708319D01*
X11023713Y667903D01*
X11143521Y627809D01*
X11267114Y588712D01*
X11393807Y551286D01*
X11522920Y516205D01*
X11653770Y484143D01*
X11785673Y455776D01*
X11917947Y431778D01*
X12049911Y412822D01*
X12170350Y399389D01*
X12298485Y387817D01*
X12430649Y378570D01*
X12563175Y372116D01*
X12692397Y368920D01*
X12814647Y369447D01*
X12926259Y374164D01*
X13023566Y383537D01*
X13102901Y398031D01*
X13160597Y418112D01*
X13192988Y444246D01*
X13196406Y476899D01*
X13167185Y516537D01*
X13189414Y533528D01*
X13239476Y528331D01*
X13271241Y504658D01*
X13279658Y432258D01*
X13241860Y347964D01*
X13134979Y288608D01*
X13056047Y277963D01*
X12949454Y274563D01*
X12821455Y277295D01*
X12678302Y285049D01*
X12526250Y296712D01*
X12371553Y311174D01*
X12220464Y327323D01*
X12079238Y344047D01*
X11954128Y360235D01*
X11851389Y374775D01*
X11777274Y386556D01*
X11649312Y411352D01*
X11524626Y440302D01*
X11403378Y472717D01*
X11285732Y507906D01*
X11171850Y545177D01*
X11061895Y583841D01*
X10956029Y623206D01*
X10854416Y662582D01*
X10757218Y701278D01*
X10554217Y785545D01*
X10380049Y862259D01*
X10238125Y927867D01*
X10131857Y978817D01*
X10064657Y1011554D01*
X10039936Y1022527D01*
X9892144Y955014D01*
X9780455Y911601D01*
X9675403Y884934D01*
X9547520Y867659D01*
X9490146Y859281D01*
X9371899Y857659D01*
X9219825Y859774D01*
X9060971Y862603D01*
X8922384Y863127D01*
X8831110Y858323D01*
X8814197Y845171D01*
X8814128Y844482D01*
X8863290Y824367D01*
X8973697Y788304D01*
X9022414Y766723D01*
X8895862Y751966D01*
X8770883Y752985D01*
X8647678Y767555D01*
X8526443Y793449D01*
X8407378Y828440D01*
X8290680Y870304D01*
X8176549Y916813D01*
X8054796Y979374D01*
X7936616Y1045117D01*
X7823225Y1114172D01*
X7715838Y1186667D01*
X7615670Y1262732D01*
X7523937Y1342496D01*
X7429298Y1420947D01*
X7322075Y1493625D01*
X7321535Y1494185D01*
X7320993Y1494735D01*
X7248135Y1574036D01*
X7172513Y1657947D01*
X7095395Y1745778D01*
X7018047Y1836839D01*
X6941736Y1930439D01*
X6867727Y2025889D01*
X6797290Y2122498D01*
X6731689Y2219578D01*
X6672589Y2220234D01*
X6590432Y2228192D01*
X6485663Y2247938D01*
X6358723Y2283958D01*
X6210055Y2340740D01*
X6040101Y2422770D01*
X5920101Y2475498D01*
X5799793Y2534345D01*
X5680900Y2597473D01*
X5565146Y2663047D01*
X5454254Y2729228D01*
X5349946Y2794181D01*
X5253946Y2856069D01*
X5167977Y2913054D01*
X5093762Y2963301D01*
X4966846Y3060888D01*
X4910335Y3120119D01*
X4896328Y3141786D01*
X4905972Y3138796D01*
X4944990Y3113914D01*
X5011206Y3069921D01*
X5102444Y3009600D01*
X5216529Y2935731D01*
X5351283Y2851096D01*
X5504532Y2758476D01*
X5674100Y2660653D01*
X5800275Y2596416D01*
X5934197Y2533447D01*
X6070850Y2473815D01*
X6205214Y2419592D01*
X6332274Y2372849D01*
X6447010Y2335657D01*
X6544405Y2310088D01*
X6619442Y2298214D01*
X6667103Y2302104D01*
X6607305Y2419771D01*
X6530974Y2577637D01*
X6489183Y2705532D01*
X6470051Y2810659D01*
X6461701Y2900219D01*
X6452251Y2981412D01*
X6417504Y2990162D01*
X6340728Y3023181D01*
X6230740Y3075924D01*
X6096354Y3143849D01*
X5946386Y3222413D01*
X5789652Y3307073D01*
X5634968Y3393286D01*
X5491148Y3476510D01*
X5367008Y3552202D01*
X5271365Y3615818D01*
X5213033Y3662817D01*
X5200828Y3688654D01*
X5237980Y3677452D01*
X5324809Y3632899D01*
X5449971Y3564120D01*
X5602123Y3480239D01*
X5769922Y3390383D01*
X5867658Y3341577D01*
X5965191Y3295411D01*
X6058537Y3250921D01*
X6143711Y3207141D01*
X6306488Y3121753D01*
X6400185Y3084403D01*
X6439969Y3090306D01*
X6441007Y3134680D01*
X6553088Y3121087D01*
X6573092Y3081733D01*
X6627488Y3100098D01*
X6626655Y3117029D01*
D10*
G36*
X4875754Y1083907D02*
X4874255Y1089904D01*
X4854796Y1169383D01*
X4857426Y1269860D01*
X4910115Y1395481D01*
X4977531Y1491548D01*
X5048487Y1570245D01*
X5121890Y1631338D01*
X5196650Y1674592D01*
X5324623Y1720005D01*
X5445370Y1743642D01*
X5555511Y1755247D01*
X5651664Y1764563D01*
X5730448Y1781335D01*
X5730920Y1781585D01*
X5731166Y1781725D01*
X5872332Y1828392D01*
X5928315Y1854424D01*
X5973785Y1883760D01*
X6003299Y1901351D01*
X6013983Y1868868D01*
X6048995Y1749854D01*
X6074503Y1627055D01*
X6090955Y1502904D01*
X6098800Y1379828D01*
X6098486Y1260258D01*
X6090463Y1146624D01*
X6075136Y1041323D01*
X6052780Y946624D01*
X6023508Y864684D01*
X5965598Y769500D01*
X5887144Y719292D01*
X5885345Y719202D01*
X5883346Y719212D01*
X5800391Y723217D01*
X5713376Y755119D01*
X5634411Y820758D01*
X5591648Y885020D01*
X5562233Y965390D01*
X5549922Y1065497D01*
X5558471Y1188971D01*
X5439002Y1119192D01*
X5320215Y1066802D01*
X5201759Y1029446D01*
X5105306Y1011643D01*
X5017183Y1011756D01*
X4939776Y1033606D01*
X4879152Y1080719D01*
X4875754Y1083907D01*
X4875754Y1083907D01*
G37*
G36*
X6458732Y327240D02*
X6453036Y329239D01*
X6371588Y398568D01*
X6327185Y517168D01*
X6312386Y613854D01*
X6306765Y721006D01*
X6308725Y834729D01*
X6318929Y974194D01*
X6335531Y1110270D01*
X6356311Y1235997D01*
X6379048Y1344412D01*
X6401525Y1428552D01*
X6401603Y1429082D01*
X6401636Y1429362D01*
X6447453Y1570806D01*
X6459554Y1631347D01*
X6462773Y1685365D01*
X6466072Y1719547D01*
X6498584Y1708952D01*
X6615273Y1666825D01*
X6729394Y1614799D01*
X6839254Y1554674D01*
X6943158Y1488244D01*
X7039411Y1417306D01*
X7126319Y1343657D01*
X7202189Y1269044D01*
X7265352Y1195033D01*
X7314135Y1122985D01*
X7356672Y1020006D01*
X7350785Y927050D01*
X7349795Y925051D01*
X7348596Y923052D01*
X7296323Y858502D01*
X7219153Y807185D01*
X7119531Y782307D01*
X7042421Y785623D01*
X6960209Y809431D01*
X6872190Y858784D01*
X6777656Y938733D01*
X6763300Y801124D01*
X6735337Y674344D01*
X6695440Y556717D01*
X6652779Y468401D01*
X6600591Y397392D01*
X6537206Y347906D01*
X6463369Y326830D01*
X6458732Y327240D01*
X6458732Y327240D01*
G37*
M02*
