%TF.GenerationSoftware,KiCad,Pcbnew,4.0.7*%
%TF.CreationDate,2017-12-02T19:07:17+08:00*%
%TF.ProjectId,CodingNinja,436F64696E674E696E6A612E6B696361,rev?*%
%TF.FileFunction,Legend,Top*%
%FSLAX46Y46*%
G04 Gerber Fmt 4.6, Leading zero omitted, Abs format (unit mm)*
G04 Created by KiCad (PCBNEW 4.0.7) date 12/02/17 19:07:17*
%MOMM*%
%LPD*%
G01*
G04 APERTURE LIST*
%ADD10C,0.100000*%
G04 APERTURE END LIST*
D10*
G36*
X8388716Y7145402D02*
X8451083Y7256064D01*
X8545926Y7275267D01*
X8717251Y7263061D01*
X8958762Y7225141D01*
X8958762Y7225111D01*
X9190213Y7190379D01*
X9363391Y7151811D01*
X9461753Y7103506D01*
X9514305Y7042367D01*
X9560469Y6931015D01*
X9599790Y6775491D01*
X9631816Y6581836D01*
X9656093Y6356094D01*
X9672167Y6104304D01*
X9679585Y5832511D01*
X9677894Y5546754D01*
X9666639Y5253076D01*
X9645368Y4957519D01*
X9613627Y4666125D01*
X9570962Y4384935D01*
X9516919Y4119991D01*
X9451046Y3877336D01*
X9372889Y3663010D01*
X9281994Y3483056D01*
X9177908Y3343516D01*
X9060177Y3250431D01*
X8928348Y3209844D01*
X8788607Y3282085D01*
X8665673Y3412971D01*
X8559066Y3594163D01*
X8468305Y3817320D01*
X8392909Y4074102D01*
X8332396Y4356170D01*
X8422048Y4488161D01*
X8457929Y4422487D01*
X8568420Y4455359D01*
X8653575Y4603199D01*
X8810371Y4524041D01*
X8959197Y4665011D01*
X9007486Y4888407D01*
X8977541Y5182043D01*
X8862373Y5326703D01*
X8835887Y5454215D01*
X8816298Y5476703D01*
X8685174Y5186271D01*
X8599246Y4986763D01*
X8539457Y4833616D01*
X8486752Y4682269D01*
X8422078Y4488161D01*
X8332426Y4356170D01*
X8289726Y4636828D01*
X8258286Y4929187D01*
X8237542Y5227539D01*
X8226927Y5526180D01*
X8225875Y5819402D01*
X8233821Y6101500D01*
X8250197Y6366767D01*
X8274439Y6609497D01*
X8305980Y6823983D01*
X8344254Y7004520D01*
X8388696Y7145402D01*
X8404288Y7113998D01*
X8472626Y6929353D01*
X8536306Y6778907D01*
X8631596Y6584920D01*
X8739752Y6355319D01*
X8865801Y6174300D01*
X8866291Y6174450D01*
X8938553Y6328038D01*
X9003518Y6430432D01*
X9012038Y6570674D01*
X9004517Y6704237D01*
X8924862Y6889652D01*
X8827742Y6943939D01*
X8722995Y6886120D01*
X8661770Y6870878D01*
X8607489Y7006501D01*
X8554048Y7106982D01*
X8404288Y7113978D01*
X8388716Y7145402D01*
X8388716Y7145402D01*
G37*
G36*
X12159754Y5230173D02*
X12295821Y5267453D01*
X12420824Y5283244D01*
X12542030Y5248063D01*
X12690587Y5122746D01*
X12774985Y5009130D01*
X12868124Y4759462D01*
X12946714Y4577581D01*
X12819182Y4426344D01*
X12691653Y4275110D01*
X12461403Y4092270D01*
X12209002Y4141533D01*
X12048449Y4175745D01*
X11917843Y4235623D01*
X11798387Y4390940D01*
X11699540Y4580554D01*
X11706591Y4731498D01*
X11787840Y4857852D01*
X11911584Y4973697D01*
X12046122Y5093110D01*
X12159754Y5230173D01*
X12159754Y5230173D01*
G37*
G36*
X11867600Y3912945D02*
X11899857Y3769395D01*
X11898083Y3669635D01*
X11760508Y3480529D01*
X11637691Y3359566D01*
X11495578Y3255626D01*
X11300112Y3117590D01*
X11051565Y3154017D01*
X10871411Y3232998D01*
X10796451Y3113022D01*
X10615528Y3276255D01*
X10388639Y3554217D01*
X10317494Y3643261D01*
X10278148Y3764155D01*
X10430297Y3802834D01*
X10564515Y3671784D01*
X10519414Y3927473D01*
X10524836Y4098996D01*
X10719954Y4230554D01*
X10926810Y4335485D01*
X11141897Y4421734D01*
X11373706Y4336200D01*
X11578634Y4289465D01*
X11740530Y4093098D01*
X11867600Y3912945D01*
X11867600Y3912945D01*
G37*
M02*
